<?xml version="1.0" encoding="UTF-8" standalone="no"?>
<!-- Created with Inkscape (http://www.inkscape.org/) -->

<svg
   width="23.999998"
   height="24"
   id="svg7538"
   version="1.1"
   xmlns:xlink="http://www.w3.org/1999/xlink"
   xmlns="http://www.w3.org/2000/svg"
   xmlns:svg="http://www.w3.org/2000/svg"
   xmlns:rdf="http://www.w3.org/1999/02/22-rdf-syntax-ns#"
   xmlns:cc="http://creativecommons.org/ns#"
   xmlns:dc="http://purl.org/dc/elements/1.1/">
  <defs
     id="defs7540">
    <linearGradient
       id="linearGradient3802-3">
      <stop
         id="stop3804-85"
         offset="0"
         style="stop-color:#ffffff;stop-opacity:1;" />
      <stop
         style="stop-color:#ffffff;stop-opacity:0.78431374;"
         offset="0.5"
         id="stop3818-00" />
      <stop
         id="stop3820-25"
         offset="0.75"
         style="stop-color:#ffffff;stop-opacity:0.39215687;" />
      <stop
         id="stop3806-9"
         offset="1"
         style="stop-color:#ffffff;stop-opacity:1;" />
    </linearGradient>
    <linearGradient
       xlink:href="#linearGradient3802-3"
       id="linearGradient10850"
       gradientUnits="userSpaceOnUse"
       x1="23.071802"
       y1="1050.3622"
       x2="23.071802"
       y2="1055.3622" />
    <linearGradient
       xlink:href="#linearGradient3802-3"
       id="linearGradient10852"
       gradientUnits="userSpaceOnUse"
       gradientTransform="translate(0,1)"
       x1="27"
       y1="1036.3622"
       x2="27"
       y2="1054.3622" />
    <linearGradient
       xlink:href="#linearGradient3802-3"
       id="linearGradient10854"
       gradientUnits="userSpaceOnUse"
       x1="15"
       y1="1050.7019"
       x2="23.071802"
       y2="1055.3622" />
  </defs>
  <metadata
     id="metadata7543">
    <rdf:RDF>
      <cc:Work
         rdf:about="">
        <dc:format>image/svg+xml</dc:format>
        <dc:type
           rdf:resource="http://purl.org/dc/dcmitype/StillImage" />
        <dc:title />
      </cc:Work>
    </rdf:RDF>
  </metadata>
  <g
     id="layer1"
     transform="translate(-9.0000002,-1159.3622)">
    <g
       id="network-wired"
       transform="translate(0,125)">
      <rect
         y="1034.3622"
         x="9"
         height="24"
         width="24"
         id="rect10838"
         style="opacity:0.8;fill:#000000;fill-opacity:0;stroke:none" />
      <path
         style="opacity:1;fill:url(#linearGradient10850);fill-opacity:1;fill-rule:nonzero;stroke:none;stroke-width:0.3;stroke-linecap:round;stroke-linejoin:round;stroke-miterlimit:4;stroke-dasharray:none;stroke-dashoffset:0;stroke-opacity:1"
         d="m 20.000002,1051.3622 c -0.554011,0 -1,0.446 -1,1 h -8 v 2 h 8 c 0,0.554 0.445989,1 1,1 h 2 c 0.554011,0 1,-0.446 1,-1 h 8 v -2 h -8 c 0,-0.554 -0.445989,-1 -1,-1 z"
         id="path10840" />
      <rect
         style="opacity:0.459;fill:#ffffff;fill-opacity:1;fill-rule:nonzero;stroke:none;stroke-width:0.3;stroke-linecap:round;stroke-linejoin:round;stroke-miterlimit:4;stroke-dasharray:none;stroke-dashoffset:0;stroke-opacity:1"
         id="rect10842"
         width="2"
         height="2.9999807"
         x="20"
         y="1048.3622"
         rx="0"
         ry="0" />
      <path
         style="opacity:0.761;fill:url(#linearGradient10852);fill-opacity:1;fill-rule:nonzero;stroke:none;stroke-width:0.3;stroke-linecap:round;stroke-linejoin:round;stroke-miterlimit:4;stroke-dasharray:none;stroke-dashoffset:0;stroke-opacity:1"
         d="m 16.000002,1037.3622 c -1.108011,0 -2,0.892 -2,2 v 7 c 0,1.108 0.891989,2 2,2 h 10 c 1.108011,0 2,-0.892 2,-2 v -7 c 0,-1.108 -0.891989,-2 -2,-2 z m 0,2 h 10 v 7 h -10 z"
         id="path10844" />
      <path
         id="path10846"
         d="m 20.000002,1051.3622 c -0.554011,0 -1,0.446 -1,1 h -8 v 2 h 8 c 0,0.554 0.445989,1 1,1 h 2 c 0.554011,0 1,-0.446 1,-1 h 8 v -2 h -8 c 0,-0.554 -0.445989,-1 -1,-1 z"
         style="opacity:1;fill:url(#linearGradient10854);fill-opacity:1;fill-rule:nonzero;stroke:none;stroke-width:0.3;stroke-linecap:round;stroke-linejoin:round;stroke-miterlimit:4;stroke-dasharray:none;stroke-dashoffset:0;stroke-opacity:1" />
      <path
         style="opacity:1;fill:#000000;fill-opacity:0.392157;fill-rule:nonzero;stroke:none;stroke-width:0.3;stroke-linecap:round;stroke-linejoin:round;stroke-miterlimit:4;stroke-dasharray:none;stroke-dashoffset:0;stroke-opacity:1"
         d="m 26,77.041016 c -1.629827,0 -2.972656,1.342841 -2.972656,2.972656 v 7 c 0,1.629814 1.342829,2.972656 2.972656,2.972656 h 3.027344 v 1.462891 c -0.25852,0.161831 -0.429967,0.333277 -0.591797,0.591797 H 21 a 0.97236891,0.97236891 0 0 0 -0.972656,0.972656 v 2 A 0.97236891,0.97236891 0 0 0 21,95.986328 h 7.435547 c 0.350818,0.560425 0.865281,1 1.564453,1 h 2 c 0.699172,0 1.213635,-0.439575 1.564453,-1 H 41 a 0.97236891,0.97236891 0 0 0 0.972656,-0.972656 v -2 A 0.97236891,0.97236891 0 0 0 41,92.041016 h -7.435547 c -0.16183,-0.25852 -0.333277,-0.429966 -0.591797,-0.591797 V 89.986328 H 36 c 1.629827,0 2.972656,-1.342842 2.972656,-2.972656 v -7 c 0,-1.629815 -1.342829,-2.972656 -2.972656,-2.972656 z m 0,0.972656 h 10 c 1.108011,0 2,0.892 2,2 v 7 c 0,1.108 -0.891989,2 -2,2 h -4 v 3 c 0.554011,0 1,0.446 1,1 h 8 v 2 h -8 c 0,0.554 -0.445989,1 -1,1 h -2 c -0.554011,0 -1,-0.446 -1,-1 h -8 v -2 h 8 c 0,-0.554 0.445989,-1 1,-1 v -3 h -4 c -1.108011,0 -2,-0.892 -2,-2 v -7 c 0,-1.108 0.891989,-2 2,-2 z m 0,2 v 7 h 10 v -7 z m 0.972656,0.972656 h 8.054688 v 5.054688 h -8.054688 z"
         transform="translate(-9.9999979,959.34853)"
         id="path10848" />
    </g>
  </g>
</svg>
